<?xml version="1.0" encoding="UTF-8"?>
<svg width="38px" height="38px" viewBox="0 0 38 38" version="1.1" xmlns="http://www.w3.org/2000/svg" xmlns:xlink="http://www.w3.org/1999/xlink">
    <!-- Generator: Sketch 53.2 (72643) - https://sketchapp.com -->
    <title>Shape</title>
    <desc>Created with Sketch.</desc>
    <g id="钱包UI" stroke="none" stroke-width="1" fill="none" fill-rule="evenodd">
        <g id="3-2_uNode" transform="translate(-61.000000, -984.000000)" fill="#F8C200" fill-rule="nonzero">
            <path d="M91.7632344,1007.13389 C91.7644685,1008.07679 92.5296064,1008.84027 93.4724873,1008.83945 C94.4153681,1008.83863 95.1791729,1008.07381 95.1787621,1007.13091 C95.1783512,1006.18801 94.4138802,1005.42386 93.470999,1005.42386 C92.5277049,1005.42386 91.7632344,1006.18946 91.7632344,1007.13389 L91.7632344,1007.13389 Z M92.9837049,990.036912 L90.1459991,985.1147 C89.8513545,984.602748 89.3651676,984.229031 88.7946647,984.075972 C88.2241618,983.922912 87.6162069,984.003083 87.1048816,984.298801 L77.180176,990.036912 L92.9837049,990.036912 L92.9837049,990.036912 Z M92.4137049,1010.83114 C91.4337456,1010.83054 90.4941583,1010.44068 89.8016416,1009.74731 C89.1091249,1009.05394 88.7204062,1008.11387 88.7209992,1007.13389 C88.7201095,1006.15391 89.1085439,1005.21372 89.800851,1004.52014 C90.4931582,1003.82656 91.4326279,1003.43641 92.4125873,1003.43552 L98.9999989,1003.43552 L98.9999989,994.497528 C99.000592,993.906458 98.7663637,993.339361 98.3488414,992.920992 C97.9313192,992.502624 97.3647044,992.267254 96.773646,992.266661 L63.2263529,992.266661 C61.9969412,992.266661 61,993.265857 61,994.497528 L61,1019.77025 C61,1021.00192 61.9969412,1022 63.2263529,1022 L96.773646,1022 C98.0030577,1022 98.9999988,1021.00192 98.9999989,1019.77025 L98.9999989,1010.83114 L92.4125873,1010.83114 L92.4137049,1010.83114 Z" id="Shape"></path>
        </g>
    </g>
</svg>